[Header]
FileType HTR
DataType HTRS
FileVersion 1
NumSegments 64
NumFrames 4
DataFrameRate 30
EulerRotationOrder ZYX
CalibrationUnits mm
RotationUnits Degrees
GlobalAxisofGravity Y
BoneLengthAxis Y
ScaleFactor 1.0
[SegmentNames&Hierarchy]
Hips	GLOBAL
Spine	Hips
Spine1	Spine
Spine2	Spine1
Neck	Spine2
Head	Neck
LeftEye	Head
RightEye	Head
LeftShoulder	Spine2
LeftArm	LeftShoulder
LeftForeArm	LeftArm
LeftHand	LeftForeArm
LeftHandThumb1	LeftHand
LeftHandThumb2	LeftHandThumb1
LeftHandThumb3	LeftHandThumb2
LeftHandThumb4	LeftHandThumb3
LeftHandIndex1	LeftHand
LeftHandIndex2	LeftHandIndex1
LeftHandIndex3	LeftHandIndex2
LeftHandIndex4	LeftHandIndex3
LeftHandMiddle1	LeftHand
LeftHandMiddle2	LeftHandMiddle1
LeftHandMiddle3	LeftHandMiddle2
LeftHandMiddle4	LeftHandMiddle3
LeftHandRing1	LeftHand
LeftHandRing2	LeftHandRing1
LeftHandRing3	LeftHandRing2
LeftHandRing4	LeftHandRing3
LeftHandPinky1	LeftHand
LeftHandPinky2	LeftHandPinky1
LeftHandPinky3	LeftHandPinky2
LeftHandPinky4	LeftHandPinky3
RightShoulder	Spine2
RightArm	RightShoulder
RightForeArm	RightArm
RightHand	RightForeArm
RightHandPinky1	RightHand
RightHandPinky2	RightHandPinky1
RightHandPinky3	RightHandPinky2
RightHandPinky4	RightHandPinky3
RightHandRing1	RightHand
RightHandRing2	RightHandRing1
RightHandRing3	RightHandRing2
RightHandRing4	RightHandRing3
RightHandMiddle1	RightHand
RightHandMiddle2	RightHandMiddle1
RightHandMiddle3	RightHandMiddle2
RightHandMiddle4	RightHandMiddle3
RightHandIndex1	RightHand
RightHandIndex2	RightHandIndex1
RightHandIndex3	RightHandIndex2
RightHandIndex4	RightHandIndex3
RightHandThumb1	RightHand
RightHandThumb2	RightHandThumb1
RightHandThumb3	RightHandThumb2
RightHandThumb4	RightHandThumb3
LeftUpLeg	Hips
LeftLeg	LeftUpLeg
LeftFoot	LeftLeg
LeftToeBase	LeftFoot
RightUpLeg	Hips
RightLeg	RightUpLeg
RightFoot	RightLeg
RightToeBase	RightFoot
[BasePosition]
Hips	0	0	0	0	0	0	1
Spine	0	0	0	0	0	0	1
Spine1	0	0	0	0	0	0	1
Spine2	0	0	0	0	0	0	1
Neck	0	0	0	0	0	0	1
Head	0	0	0	0	0	0	1
LeftEye	0	0	0	0	0	0	1
RightEye	0	0	0	0	0	0	1
LeftShoulder	0	0	0	0	0	0	1
LeftArm	0	0	0	0	0	0	1
LeftForeArm	0	0	0	0	0	0	1
LeftHand	0	0	0	0	0	0	1
LeftHandThumb1	0	0	0	0	0	0	1
LeftHandThumb2	0	0	0	0	0	0	1
LeftHandThumb3	0	0	0	0	0	0	1
LeftHandThumb4	0	0	0	0	0	0	1
LeftHandIndex1	0	0	0	0	0	0	1
LeftHandIndex2	0	0	0	0	0	0	1
LeftHandIndex3	0	0	0	0	0	0	1
LeftHandIndex4	0	0	0	0	0	0	1
LeftHandMiddle1	0	0	0	0	0	0	1
LeftHandMiddle2	0	0	0	0	0	0	1
LeftHandMiddle3	0	0	0	0	0	0	1
LeftHandMiddle4	0	0	0	0	0	0	1
LeftHandRing1	0	0	0	0	0	0	1
LeftHandRing2	0	0	0	0	0	0	1
LeftHandRing3	0	0	0	0	0	0	1
LeftHandRing4	0	0	0	0	0	0	1
LeftHandPinky1	0	0	0	0	0	0	1
LeftHandPinky2	0	0	0	0	0	0	1
LeftHandPinky3	0	0	0	0	0	0	1
LeftHandPinky4	0	0	0	0	0	0	1
RightShoulder	0	0	0	0	0	0	1
RightArm	0	0	0	0	0	0	1
RightForeArm	0	0	0	0	0	0	1
RightHand	0	0	0	0	0	0	1
RightHandPinky1	0	0	0	0	0	0	1
RightHandPinky2	0	0	0	0	0	0	1
RightHandPinky3	0	0	0	0	0	0	1
RightHandPinky4	0	0	0	0	0	0	1
RightHandRing1	0	0	0	0	0	0	1
RightHandRing2	0	0	0	0	0	0	1
RightHandRing3	0	0	0	0	0	0	1
RightHandRing4	0	0	0	0	0	0	1
RightHandMiddle1	0	0	0	0	0	0	1
RightHandMiddle2	0	0	0	0	0	0	1
RightHandMiddle3	0	0	0	0	0	0	1
RightHandMiddle4	0	0	0	0	0	0	1
RightHandIndex1	0	0	0	0	0	0	1
RightHandIndex2	0	0	0	0	0	0	1
RightHandIndex3	0	0	0	0	0	0	1
RightHandIndex4	0	0	0	0	0	0	1
RightHandThumb1	0	0	0	0	0	0	1
RightHandThumb2	0	0	0	0	0	0	1
RightHandThumb3	0	0	0	0	0	0	1
RightHandThumb4	0	0	0	0	0	0	1
LeftUpLeg	0	0	0	0	0	0	1
LeftLeg	0	0	0	0	0	0	1
LeftFoot	0	0	0	0	0	0	1
LeftToeBase	0	0	0	0	0	0	1
RightUpLeg	0	0	0	0	0	0	1
RightLeg	0	0	0	0	0	0	1
RightFoot	0	0	0	0	0	0	1
RightToeBase	0	0	0	0	0	0	1
[Hips]
1	1.424355745	1033.937378	14.22169876	-3.419287205	-5.442919731	-3.420351744	1.0
2	-0.9361106157	1031.698486	15.54646969	-3.402563572	-5.112187862	-2.641150951	1.0
3	-3.452193975	1029.479858	17.04878616	-3.416529655	-4.764094353	-1.84572947	1.0
4	-6.133489609	1027.165649	18.69656372	-3.46237421	-4.415641785	-0.9911673069	1.0
[Spine]
1	0	101.8159943	1.315000057	3.364204407	1.377210379	2.806977987	1.0
2	0	101.8159943	1.315000057	3.334556341	1.413711786	2.28397584	1.0
3	0	101.8159943	1.315000057	3.315821409	1.437523127	1.771171927	1.0
4	0	101.8159943	1.315000057	3.313917398	1.453685999	1.228844166	1.0
[Spine1]
1	0	100.8349991	-10.00800037	1.154550314	0.2979125082	1.559264183	1.0
2	0	100.8349991	-10.00800037	1.147181034	0.2945081592	1.437284708	1.0
3	0	100.8349991	-10.00800037	1.138217449	0.2886884212	1.309500694	1.0
4	0	100.8349991	-10.00800037	1.123897672	0.2813060582	1.175149679	1.0
[Spine2]
1	0	91	-13.73399925	1.132959247	0.3255805671	1.557645679	1.0
2	0	91	-13.73399925	1.126260996	0.3207948208	1.435922027	1.0
3	0	91	-13.73399925	1.118052006	0.3134323061	1.308393598	1.0
4	0	91	-13.73399925	1.104590416	0.3044013679	1.174261808	1.0
[Neck]
1	0	166.7169952	-25.16200066	5.621861935	-0.122247979	0.4541067183	1.0
2	0	166.7169952	-25.16200066	5.449511051	-0.06784950942	0.4286878705	1.0
3	0	166.7169952	-25.16200066	5.406685829	0.004697185475	0.3915176392	1.0
4	0	166.7169952	-25.16200066	5.515061378	0.09411458671	0.3489460647	1.0
[Head]
1	0	96.17900085	16.84999847	-7.555272579	1.351712942	-0.2643336952	1.0
2	0	96.17900085	16.84999847	-7.708989143	1.486294627	-0.2891348004	1.0
3	0	96.17900085	16.84999847	-7.975656986	1.687895656	-0.3492611945	1.0
4	0	96.17900085	16.84999847	-8.365381241	1.963680744	-0.4527966976	1.0
[LeftEye]
1	30.6760006	64.09500122	92.83599854	0	0	0	1.0
2	30.6760006	64.09500122	92.83599854	0	0	0	1.0
3	30.6760006	64.09500122	92.83599854	0	0	0	1.0
4	30.6760006	64.09500122	92.83599854	0	0	0	1.0
[RightEye]
1	-30.6760006	64.09500122	92.83499908	0	0	0	1.0
2	-30.6760006	64.09500122	92.83499908	0	0	0	1.0
3	-30.6760006	64.09500122	92.83499908	0	0	0	1.0
4	-30.6760006	64.09500122	92.83499908	0	0	0	1.0
[LeftShoulder]
1	45.70400238	109.4599991	-26.28000069	4.900439262	-16.79586983	-13.20130825	1.0
2	45.70400238	109.4599991	-26.28000069	4.901702404	-16.78227997	-13.21702766	1.0
3	45.70400238	109.4599991	-26.28000069	4.900755405	-16.7652607	-13.2170229	1.0
4	45.70400238	109.4599991	-26.28000069	4.901805401	-16.76209641	-13.2308712	1.0
[LeftArm]
1	105.923996	-5.24600029	-22.32099915	20.12815857	-3.088195801	-71.00603485	1.0
2	105.923996	-5.24600029	-22.32099915	19.25053978	-2.826000929	-70.34770966	1.0
3	105.923996	-5.24600029	-22.32099915	18.22400856	-2.571095467	-69.68602753	1.0
4	105.923996	-5.24600029	-22.32099915	16.98576927	-2.503970146	-69.06036377	1.0
[LeftForeArm]
1	278.414978	-0.0009999999311	0	6.348122952e-06	-1.452710748	-0.0002113467781	1.0
2	278.414978	-0.0009999999311	0	-4.929226179e-06	-2.018923044	-0.0002036905207	1.0
3	278.414978	-0.0009999999311	0	-6.235316505e-06	-2.587152481	-0.0002032547345	1.0
4	278.414978	-0.0009999999311	0	-1.234504907e-06	-2.76133728	-0.0002053040225	1.0
[LeftHand]
1	283.2879944	0	0	-32.95326614	-4.521543503	-4.44643259	1.0
2	283.2879944	0	0	-31.01722717	-4.528829098	-4.554076195	1.0
3	283.2879944	0	0	-28.84103966	-4.553196907	-4.74679327	1.0
4	283.2879944	0	0	-26.44369507	-4.837168694	-4.816830635	1.0
[LeftHandThumb1]
1	24.6609993	-15.75	26.8239994	-0.4920385182	2.199956417	4.823302746	1.0
2	24.6609993	-15.75	26.8239994	-0.4981354475	1.917258024	4.914247513	1.0
3	24.6609993	-15.75	26.8239994	-0.5046678185	1.650964379	5.000253201	1.0
4	24.6609993	-15.75	26.8239994	-0.5115693212	1.401967049	5.080996037	1.0
[LeftHandThumb2]
1	32.29800034	-18.64699936	18.64699936	19.88842773	19.95653152	23.26544571	1.0
2	32.29800034	-18.64699936	18.64699936	19.01529884	19.32317543	22.06922531	1.0
3	32.29800034	-18.64699936	18.64699936	18.11470032	18.52873993	20.85666656	1.0
4	32.29800034	-18.64699936	18.64699936	17.19499207	17.56079865	19.63289833	1.0
[LeftHandThumb3]
1	26.52600098	-15.31499958	15.31499958	-13.14327812	5.554694653	7.961849689	1.0
2	26.52600098	-15.31499958	15.31499958	-13.29124069	5.443607807	8.414687157	1.0
3	26.52600098	-15.31499958	15.31499958	-13.48640347	5.211737633	8.860347748	1.0
4	26.52600098	-15.31499958	15.31499958	-13.73443222	4.853279114	9.298676491	1.0
[LeftHandThumb4]
1	19.54599953	-11.28499985	11.28499985	0	0	0	1.0
2	19.54599953	-11.28499985	11.28499985	0	0	0	1.0
3	19.54599953	-11.28499985	11.28499985	0	0	0	1.0
4	19.54599953	-11.28499985	11.28499985	0	0	0	1.0
[LeftHandIndex1]
1	91.09299469	-5.170999527	22.60099792	0.1481708586	-0.9587937593	-7.591902256	1.0
2	91.09299469	-5.170999527	22.60099792	0.2630822062	-1.032541871	-6.82927227	1.0
3	91.09299469	-5.170999527	22.60099792	0.3745456636	-1.152342916	-5.795854092	1.0
4	91.09299469	-5.170999527	22.60099792	0.48092556	-1.321471214	-4.476437092	1.0
[LeftHandIndex2]
1	36.76399994	0	0	-0.2667286098	1.74525094	-17.37727928	1.0
2	36.76399994	0	0	-0.2979893684	1.841859818	-18.37354088	1.0
3	36.76399994	0	0	-0.3249526024	1.921351314	-19.19718552	1.0
4	36.76399994	0	0	-0.3467742503	1.98295033	-19.83844757	1.0
[LeftHandIndex3]
1	28.83100128	0	0	-0.0574384518	0.8174214363	-8.039172173	1.0
2	28.83100128	0	0	-0.090294227	1.021861911	-10.0693531	1.0
3	28.83100128	0	0	-0.1264785081	1.209224582	-11.94071579	1.0
4	28.83100128	0	0	-0.1648824215	1.378634095	-13.64433861	1.0
[LeftHandIndex4]
1	23.92700005	0	0	0	0	0	1.0
2	23.92700005	0	0	0	0	0	1.0
3	23.92700005	0	0	0	0	0	1.0
4	23.92700005	0	0	0	0	0	1.0
[LeftHandMiddle1]
1	95.33399963	0	0	-0.7944075465	2.534473419	-15.71922874	1.0
2	95.33399963	0	0	-0.8454697728	2.613143682	-16.46822357	1.0
3	95.33399963	0	0	-0.8854210973	2.676650047	-17.04677963	1.0
4	95.33399963	0	0	-0.9132588506	2.724420786	-17.445261	1.0
[LeftHandMiddle2]
1	36.98199844	0	0	-0.2676011622	1.748044848	-17.40599251	1.0
2	36.98199844	0	0	-0.3229608238	1.914962888	-19.13144684	1.0
3	36.98199844	0	0	-0.3756734431	2.061160088	-20.65666389	1.0
4	36.98199844	0	0	-0.4242925346	2.185859919	-21.97029495	1.0
[LeftHandMiddle3]
1	29.50900078	0	0	-0.2992066741	1.845787406	-18.41388321	1.0
2	29.50900078	0	0	-0.3051961958	1.86365664	-18.59877586	1.0
3	29.50900078	0	0	-0.308324635	1.872940063	-18.69491005	1.0
4	29.50900078	0	0	-0.3084021807	1.873167276	-18.69725609	1.0
[LeftHandMiddle4]
1	28.3390007	0	0	0	0	0	1.0
2	28.3390007	0	0	0	0	0	1.0
3	28.3390007	0	0	0	0	0	1.0
4	28.3390007	0	0	0	0	0	1.0
[LeftHandRing1]
1	91.04499817	-0.4390000105	-18.65100098	-1.185063004	3.439615965	-21.16763115	1.0
2	91.04499817	-0.4390000105	-18.65100098	-1.338026881	3.514173508	-23.15489197	1.0
3	91.04499817	-0.4390000105	-18.65100098	-1.488272548	3.580118895	-25.04792786	1.0
4	91.04499817	-0.4390000105	-18.65100098	-1.635129213	3.637408257	-26.84140015	1.0
[LeftHandRing2]
1	31.54000092	0	0	-0.3848823309	2.085428476	-20.91132927	1.0
2	31.54000092	0	0	-0.4220385253	2.179891586	-21.90765381	1.0
3	31.54000092	0	0	-0.4538468719	2.257538557	-22.73130035	1.0
4	31.54000092	0	0	-0.4794183671	2.317644358	-23.37250137	1.0
[LeftHandRing3]
1	29.37700081	0	0	-0.2818885446	1.792955399	-17.86833	1.0
2	29.37700081	0	0	-0.2859936059	1.805623174	-17.9990139	1.0
3	29.37700081	0	0	-0.2873746157	1.809884071	-18.04295731	1.0
4	29.37700081	0	0	-0.2858731449	1.805263877	-17.99527931	1.0
[LeftHandRing4]
1	26.47500038	0	0	0	0	0	1.0
2	26.47500038	0	0	0	0	0	1.0
3	26.47500038	0	0	0	0	0	1.0
4	26.47500038	0	0	0	0	0	1.0
[LeftHandPinky1]
1	80.77799988	-4.887000084	-38.06099701	-1.71359086	5.355303288	-27.1646843	1.0
2	80.77799988	-4.887000084	-38.06099701	-2.100483656	5.442406654	-28.89977837	1.0
3	80.77799988	-4.887000084	-38.06099701	-2.473158121	5.527106285	-30.51473427	1.0
4	80.77799988	-4.887000084	-38.06099701	-2.830201387	5.610321045	-32.00271988	1.0
[LeftHandPinky2]
1	36	0	0	-0.2676214278	1.74810791	-17.40663528	1.0
2	36	0	0	-0.3273514509	1.927832484	-19.26485252	1.0
3	36	0	0	-0.3946006596	2.110682249	-21.17690277	1.0
4	36	0	0	-0.4703383744	2.296422243	-23.14592552	1.0
[LeftHandPinky3]
1	21.14200211	0	0	-0.2408421487	1.660320759	-16.50626373	1.0
2	21.14200211	0	0	-0.3020562232	1.853862166	-18.4976902	1.0
3	21.14200211	0	0	-0.3716839552	2.050592661	-20.54569435	1.0
4	21.14200211	0	0	-0.4508115351	2.250220299	-22.65356445	1.0
[LeftHandPinky4]
1	19.75699997	0	0	0	0	0	1.0
2	19.75699997	0	0	0	0	0	1.0
3	19.75699997	0	0	0	0	0	1.0
4	19.75699997	0	0	0	0	0	1.0
[RightShoulder]
1	-45.70000076	109.4620056	-26.28000069	5.170573711	14.51422977	15.52616882	1.0
2	-45.70000076	109.4620056	-26.28000069	5.152183056	14.47379208	15.45024109	1.0
3	-45.70000076	109.4620056	-26.28000069	5.146858692	14.46705627	15.42309475	1.0
4	-45.70000076	109.4620056	-26.28000069	5.153727531	14.51237106	15.42337704	1.0
[RightArm]
1	-105.9280014	-5.248000145	-22.32099915	30.23653412	2.217688799	62.62067032	1.0
2	-105.9280014	-5.248000145	-22.32099915	29.30464935	2.097881079	62.23267746	1.0
3	-105.9280014	-5.248000145	-22.32099915	28.38963318	1.920065641	61.7677803	1.0
4	-105.9280014	-5.248000145	-22.32099915	27.5073967	1.705819368	61.24686813	1.0
[RightForeArm]
1	-278.414978	0	0	-1.877225145e-06	6.689623356	3.577245934e-06	1.0
2	-278.414978	0	0	3.538679039e-06	6.622171879	1.908267586e-05	1.0
3	-278.414978	0	0	7.123720138e-07	6.64509964	-7.296827107e-07	1.0
4	-278.414978	0	0	-7.166459568e-07	6.727620125	-1.643852374e-05	1.0
[RightHand]
1	-283.2879944	0	0.0009999999311	-20.07316589	1.849768281	6.558176994	1.0
2	-283.2879944	0	0.0009999999311	-18.40350914	1.846397042	6.525964737	1.0
3	-283.2879944	0	0.0009999999311	-16.63485718	1.883789182	6.359911919	1.0
4	-283.2879944	0	0.0009999999311	-14.65385342	1.862018108	6.103082657	1.0
[RightHandPinky1]
1	-80.76699829	-4.885000229	-38.06000137	-1.507867575	-4.696541309	26.50438881	1.0
2	-80.76699829	-4.885000229	-38.06000137	-1.565070748	-4.758209705	27.5749073	1.0
3	-80.76699829	-4.885000229	-38.06000137	-1.61893034	-4.819953442	28.56140518	1.0
4	-80.76699829	-4.885000229	-38.06000137	-1.678125262	-4.881810188	29.46969795	1.0
[RightHandPinky2]
1	-36	0	0.0009999999311	-0.2127305865	-1.388780713	17.43663025	1.0
2	-36	0	0.0009999999311	-0.2675519884	-1.552301884	19.56735039	1.0
3	-36	0	0.0009999999311	-0.3297356665	-1.717699289	21.75098991	1.0
4	-36	0	0.0009999999311	-0.3999245167	-1.884141326	23.98353004	1.0
[RightHandPinky3]
1	-21.14200211	0	0	-0.1918348819	-1.320337415	16.53286743	1.0
2	-21.14200211	0	0	-0.2475490272	-1.494732618	18.79461479	1.0
3	-21.14200211	0	0	-0.3113705516	-1.670918226	21.11021233	1.0
4	-21.14200211	0	0	-0.3840235174	-1.847978115	23.47559929	1.0
[RightHandPinky4]
1	-19.75699997	0	0	0	0	0	1.0
2	-19.75699997	0	0	0	0	0	1.0
3	-19.75699997	0	0	0	0	0	1.0
4	-19.75699997	0	0	0	0	0	1.0
[RightHandRing1]
1	-91.03599548	-0.4390000105	-18.65100098	-1.04608345	-2.885404348	20.49067497	1.0
2	-91.03599548	-0.4390000105	-18.65100098	-1.114997625	-2.963423491	21.5274086	1.0
3	-91.03599548	-0.4390000105	-18.65100098	-1.177129149	-3.045397282	22.44855499	1.0
4	-91.03599548	-0.4390000105	-18.65100098	-1.23281455	-3.131090879	23.26260948	1.0
[RightHandRing2]
1	-31.54000092	0	0	-0.3066920936	-1.658757091	20.94922829	1.0
2	-31.54000092	0	0	-0.3742623031	-1.825138211	23.1682148	1.0
3	-31.54000092	0	0	-0.4529872239	-1.999270082	25.5303421	1.0
4	-31.54000092	0	0	-0.5439293981	-2.179219007	28.02315712	1.0
[RightHandRing3]
1	-29.37700081	0	0	-0.2245378494	-1.425853729	17.8977375	1.0
2	-29.37700081	0	0	-0.2907318473	-1.616312981	20.38877678	1.0
3	-29.37700081	0	0	-0.3741960227	-1.825271845	23.16956139	1.0
4	-29.37700081	0	0	-0.4773723185	-2.049118042	26.21661949	1.0
[RightHandRing4]
1	-26.47500038	0	0	0	0	0	1.0
2	-26.47500038	0	0	0	0	0	1.0
3	-26.47500038	0	0	0	0	0	1.0
4	-26.47500038	0	0	0	0	0	1.0
[RightHandMiddle1]
1	-95.32500458	0	0	-0.7017182112	-2.089077473	15.01518917	1.0
2	-95.32500458	0	0	-0.7735126019	-2.17189002	16.20462036	1.0
3	-95.32500458	0	0	-0.8495563269	-2.254818439	17.43684006	1.0
4	-95.32500458	0	0	-0.9298352599	-2.337352991	18.70738411	1.0
[RightHandMiddle2]
1	-36.98199844	0	0	-0.2132481337	-1.390423894	17.43832588	1.0
2	-36.98199844	0	0	-0.267811507	-1.553024411	19.55721283	1.0
3	-36.98199844	0	0	-0.329292953	-1.716601491	21.71669579	1.0
4	-36.98199844	0	0	-0.3982146382	-1.88033092	23.91216087	1.0
[RightHandMiddle3]
1	-29.50900078	0	0	-0.2384294868	-1.470176697	18.44775009	1.0
2	-29.50900078	0	0	-0.3062466979	-1.659435153	20.93153	1.0
3	-29.50900078	0	0	-0.3911929429	-1.866490722	23.69746208	1.0
4	-29.50900078	0	0	-0.495618552	-2.08778739	26.7226944	1.0
[RightHandMiddle4]
1	-28.3390007	0	0.0009999999311	0	0	0	1.0
2	-28.3390007	0	0.0009999999311	0	0	0	1.0
3	-28.3390007	0	0.0009999999311	0	0	0	1.0
4	-28.3390007	0	0.0009999999311	0	0	0	1.0
[RightHandIndex1]
1	-91.08300018	-5.167999744	22.60099792	0.1879217774	1.254196882	6.830245495	1.0
2	-91.08300018	-5.167999744	22.60099792	0.1981267929	1.130967498	8.204572678	1.0
3	-91.08300018	-5.167999744	22.60099792	0.19278346	0.991556704	9.814629555	1.0
4	-91.08300018	-5.167999744	22.60099792	0.1715219319	0.8389359117	11.64008236	1.0
[RightHandIndex2]
1	-36.76399994	0	0	-0.2126509398	-1.388514161	17.41353607	1.0
2	-36.76399994	0	0	-0.269810468	-1.558740616	19.63193703	1.0
3	-36.76399994	0	0	-0.3376354277	-1.737391829	21.99336815	1.0
4	-36.76399994	0	0	-0.4172836244	-1.922611117	24.48536873	1.0
[RightHandIndex3]
1	-28.83100128	0	0	-0.04583532736	-0.6505876184	8.059420586	1.0
2	-28.83100128	0	0	-0.07480430603	-0.8289015889	10.29009151	1.0
3	-28.83100128	0	0	-0.1107569262	-1.007742286	12.54329681	1.0
4	-28.83100128	0	0	-0.154282406	-1.186514616	14.81611919	1.0
[RightHandIndex4]
1	-23.92700005	0	0	0	0	0	1.0
2	-23.92700005	0	0	0	0	0	1.0
3	-23.92700005	0	0	0	0	0	1.0
4	-23.92700005	0	0	0	0	0	1.0
[RightHandThumb1]
1	-24.64799881	-15.72700024	26.82600021	-1.658153534	-0.28367275	-4.219377518	1.0
2	-24.64799881	-15.72700024	26.82600021	-1.658152938	-0.2837031484	-4.219375134	1.0
3	-24.64799881	-15.72700024	26.82600021	-1.658149838	-0.2838728726	-4.21932745	1.0
4	-24.64799881	-15.72700024	26.82600021	-1.658145308	-0.2837162614	-4.219378948	1.0
[RightHandThumb2]
1	-32.29800034	-18.64699936	18.64699936	22.25400352	-23.90353584	-24.28309822	1.0
2	-32.29800034	-18.64699936	18.64699936	22.25427628	-23.90383148	-24.2834034	1.0
3	-32.29800034	-18.64699936	18.64699936	22.25500679	-23.904459	-24.284235	1.0
4	-32.29800034	-18.64699936	18.64699936	22.2539978	-23.90340805	-24.28314972	1.0
[RightHandThumb3]
1	-26.52600098	-15.31399918	15.31399918	-14.48194122	-6.740046978	-11.36255646	1.0
2	-26.52600098	-15.31399918	15.31399918	-14.4819231	-6.740140438	-11.36253357	1.0
3	-26.52600098	-15.31399918	15.31399918	-14.48194408	-6.740145206	-11.36236858	1.0
4	-26.52600098	-15.31399918	15.31399918	-14.48201084	-6.739888191	-11.36251163	1.0
[RightHandThumb4]
1	-19.54599953	-11.28499985	11.28499985	0	0	0	1.0
2	-19.54599953	-11.28499985	11.28499985	0	0	0	1.0
3	-19.54599953	-11.28499985	11.28499985	0	0	0	1.0
4	-19.54599953	-11.28499985	11.28499985	0	0	0	1.0
[LeftUpLeg]
1	82.07800293	-67.51699829	-15.99599934	-8.354345322	16.22532845	7.740517616	1.0
2	82.07800293	-67.51699829	-15.99599934	-8.820593834	16.22713661	7.011912823	1.0
3	82.07800293	-67.51699829	-15.99599934	-9.22549057	16.25918961	6.291337967	1.0
4	82.07800293	-67.51699829	-15.99599934	-9.584015846	16.25227547	5.536534309	1.0
[LeftLeg]
1	0	-443.7049866	2.845999956	12.30842113	1.101442456	4.504284859	1.0
2	0	-443.7049866	2.845999956	13.07580662	0.9200555682	4.492252827	1.0
3	0	-443.7049866	2.845999956	13.81378365	0.756469667	4.474841118	1.0
4	0	-443.7049866	2.845999956	14.5610218	0.5959912539	4.453716755	1.0
[LeftFoot]
1	0	-444.2789917	-29.8219986	1.187275529	0.6692329645	-7.097998619	1.0
2	0	-444.2789917	-29.8219986	0.7781265974	0.4871492386	-7.192808151	1.0
3	0	-444.2789917	-29.8219986	0.3990055919	0.2374868542	-7.296371937	1.0
4	0	-444.2789917	-29.8219986	0.02712787874	-0.007375708781	-7.412391663	1.0
[LeftToeBase]
1	0	-87.28699493	107.1060028	-4.933146954	1.075609816e-05	-1.265267088e-06	1.0
2	0	-87.28699493	107.1060028	-4.925312996	4.391750281e-06	-1.42188469e-06	1.0
3	0	-87.28699493	107.1060028	-4.97600317	2.337817705e-06	1.267418725e-06	1.0
4	0	-87.28699493	107.1060028	-4.990817547	2.973720484e-06	1.40175257e-06	1.0
[RightUpLeg]
1	-82.07800293	-67.51699829	-15.99599934	-0.0241297558	-10.40189171	3.4464674	1.0
2	-82.07800293	-67.51699829	-15.99599934	-1.820038795	-10.25425911	2.793700933	1.0
3	-82.07800293	-67.51699829	-15.99599934	-3.310517073	-10.16222286	2.12846756	1.0
4	-82.07800293	-67.51699829	-15.99599934	-4.530963898	-10.05429745	1.389901996	1.0
[RightLeg]
1	0	-443.7049866	2.861999989	8.049255371	-9.226776123	-4.560125351	1.0
2	0	-443.7049866	2.861999989	11.71433067	-9.061573029	-5.177868843	1.0
3	0	-443.7049866	2.861999989	14.83709335	-8.787471771	-5.678365707	1.0
4	0	-443.7049866	2.861999989	17.53252792	-8.522580147	-6.083209515	1.0
[RightFoot]
1	0	-444.2770081	-29.83799934	-3.774668932	-1.435435057	3.301511765	1.0
2	0	-444.2770081	-29.83799934	-5.639863014	-1.771318913	3.632841825	1.0
3	0	-444.2770081	-29.83799934	-7.179950714	-2.272246361	3.957273006	1.0
4	0	-444.2770081	-29.83799934	-8.591955185	-2.742133617	4.265166759	1.0
[RightToeBase]
1	0	-87.28699493	107.1060028	-7.273477554	4.587363492e-06	-1.028245833e-06	1.0
2	0	-87.28699493	107.1060028	-7.42549181	-9.117850823e-06	7.010700642e-07	1.0
3	0	-87.28699493	107.1060028	-7.50394392	-7.011511116e-06	2.316723567e-06	1.0
4	0	-87.28699493	107.1060028	-7.552314758	-1.60809202e-06	1.935969976e-06	1.0
[EndOfFile]
